<?xml version="1.0" encoding="UTF-8"?>
<!-- Generated by Pixelmator Pro 3.7 -->
<svg width="1025" height="1025" viewBox="0 0 1025 1025" xmlns="http://www.w3.org/2000/svg">
    <g id="Group">
        <linearGradient id="linearGradient1" x1="256.545216" y1="331.16147" x2="155.615073" y2="73.373818" gradientUnits="userSpaceOnUse">
            <stop offset="0" stop-color="#f7ba00" stop-opacity="1"/>
            <stop offset="1" stop-color="#f79403" stop-opacity="1"/>
        </linearGradient>
        <path id="Path" fill="url(#linearGradient1)" fill-rule="evenodd" stroke="none" d="M 66.311859 314.565125 C 66.311859 329.055542 78.058647 340.802368 92.549049 340.802368 L 316.877014 340.802368 C 331.367432 340.802368 343.114197 329.055542 343.114197 314.565125 L 343.114197 90.237183 C 343.114197 75.746765 331.367432 64 316.877014 64 L 92.549049 64 C 78.058647 64 66.311859 75.746765 66.311859 90.237183 Z"/>
        <linearGradient id="linearGradient2" x1="873.119155" y1="331.16147" x2="772.189012" y2="73.373818" gradientUnits="userSpaceOnUse">
            <stop offset="0" stop-color="#f7ba00" stop-opacity="1"/>
            <stop offset="1" stop-color="#f79403" stop-opacity="1"/>
        </linearGradient>
        <path id="Rounded-Rectangle-copy" fill="url(#linearGradient2)" fill-rule="evenodd" stroke="none" d="M 682.885803 314.565125 C 682.885803 329.055542 694.632568 340.802368 709.122986 340.802368 L 933.450928 340.802368 C 947.941345 340.802368 959.68811 329.055542 959.68811 314.565125 L 959.68811 90.237183 C 959.68811 75.746765 947.941345 64 933.450928 64 L 709.122986 64 C 694.632568 64 682.885803 75.746765 682.885803 90.237183 Z"/>
        <linearGradient id="linearGradient3" x1="564.832186" y1="331.16147" x2="463.902042" y2="73.373818" gradientUnits="userSpaceOnUse">
            <stop offset="0" stop-color="#f7ba00" stop-opacity="1"/>
            <stop offset="1" stop-color="#f79403" stop-opacity="1"/>
        </linearGradient>
        <path id="Rounded-Rectangle-copy-2" fill="url(#linearGradient3)" fill-rule="evenodd" stroke="none" d="M 374.598816 314.565125 C 374.598816 329.055542 386.345612 340.802368 400.836029 340.802368 L 625.164001 340.802368 C 639.654358 340.802368 651.401184 329.055542 651.401184 314.565125 L 651.401184 90.237183 C 651.401184 75.746765 639.654358 64 625.164001 64 L 400.836029 64 C 386.345612 64 374.598816 75.746765 374.598816 90.237183 Z"/>
    </g>
    <g id="g1">
        <linearGradient id="linearGradient4" x1="256.545216" y1="640.760299" x2="155.615073" y2="382.972647" gradientUnits="userSpaceOnUse">
            <stop offset="0" stop-color="#f7ba00" stop-opacity="1"/>
            <stop offset="1" stop-color="#f79403" stop-opacity="1"/>
        </linearGradient>
        <path id="Rounded-Rectangle-copy-5" fill="url(#linearGradient4)" fill-rule="evenodd" stroke="none" d="M 66.311859 624.16394 C 66.311859 638.654419 78.058647 650.401184 92.549049 650.401184 L 316.877014 650.401184 C 331.367432 650.401184 343.114197 638.654419 343.114197 624.16394 L 343.114197 399.835999 C 343.114197 385.345642 331.367432 373.598816 316.877014 373.598816 L 92.549049 373.598816 C 78.058647 373.598816 66.311859 385.345642 66.311859 399.835999 Z"/>
        <linearGradient id="linearGradient5" x1="873.119155" y1="640.760299" x2="772.189012" y2="382.972647" gradientUnits="userSpaceOnUse">
            <stop offset="0" stop-color="#f7ba00" stop-opacity="1"/>
            <stop offset="1" stop-color="#f79403" stop-opacity="1"/>
        </linearGradient>
        <path id="Rounded-Rectangle-copy-4" fill="url(#linearGradient5)" fill-rule="evenodd" stroke="none" d="M 682.885803 624.16394 C 682.885803 638.654419 694.632568 650.401184 709.122986 650.401184 L 933.450928 650.401184 C 947.941345 650.401184 959.68811 638.654419 959.68811 624.16394 L 959.68811 399.835999 C 959.68811 385.345642 947.941345 373.598816 933.450928 373.598816 L 709.122986 373.598816 C 694.632568 373.598816 682.885803 385.345642 682.885803 399.835999 Z"/>
        <linearGradient id="linearGradient6" x1="564.832186" y1="640.760299" x2="463.902042" y2="382.972647" gradientUnits="userSpaceOnUse">
            <stop offset="0" stop-color="#f7ba00" stop-opacity="1"/>
            <stop offset="1" stop-color="#f79403" stop-opacity="1"/>
        </linearGradient>
        <path id="Rounded-Rectangle-copy-3" fill="url(#linearGradient6)" fill-rule="evenodd" stroke="none" d="M 374.598816 624.16394 C 374.598816 638.654419 386.345612 650.401184 400.836029 650.401184 L 625.164001 650.401184 C 639.654358 650.401184 651.401184 638.654419 651.401184 624.16394 L 651.401184 399.835999 C 651.401184 385.345642 639.654358 373.598816 625.164001 373.598816 L 400.836029 373.598816 C 386.345612 373.598816 374.598816 385.345642 374.598816 399.835999 Z"/>
    </g>
    <g id="g2">
        <linearGradient id="linearGradient7" x1="256.545216" y1="950.359128" x2="155.615073" y2="692.571476" gradientUnits="userSpaceOnUse">
            <stop offset="0" stop-color="#f7ba00" stop-opacity="1"/>
            <stop offset="1" stop-color="#f79403" stop-opacity="1"/>
        </linearGradient>
        <path id="Rounded-Rectangle-copy-8" fill="url(#linearGradient7)" fill-rule="evenodd" stroke="none" d="M 66.311859 933.762817 C 66.311859 948.253235 78.058647 960 92.549049 960 L 316.877014 960 C 331.367432 960 343.114197 948.253235 343.114197 933.762817 L 343.114197 709.434814 C 343.114197 694.944458 331.367432 683.197632 316.877014 683.197632 L 92.549049 683.197632 C 78.058647 683.197632 66.311859 694.944458 66.311859 709.434814 Z"/>
        <linearGradient id="linearGradient8" x1="873.119155" y1="950.359128" x2="772.189012" y2="692.571476" gradientUnits="userSpaceOnUse">
            <stop offset="0" stop-color="#f7ba00" stop-opacity="1"/>
            <stop offset="1" stop-color="#f79403" stop-opacity="1"/>
        </linearGradient>
        <path id="Rounded-Rectangle-copy-7" fill="url(#linearGradient8)" fill-rule="evenodd" stroke="none" d="M 682.885803 933.762817 C 682.885803 948.253235 694.632568 960 709.122986 960 L 933.450928 960 C 947.941345 960 959.68811 948.253235 959.68811 933.762817 L 959.68811 709.434814 C 959.68811 694.944458 947.941345 683.197632 933.450928 683.197632 L 709.122986 683.197632 C 694.632568 683.197632 682.885803 694.944458 682.885803 709.434814 Z"/>
        <linearGradient id="linearGradient9" x1="564.832186" y1="950.359128" x2="463.902042" y2="692.571476" gradientUnits="userSpaceOnUse">
            <stop offset="0" stop-color="#f7ba00" stop-opacity="1"/>
            <stop offset="1" stop-color="#f79403" stop-opacity="1"/>
        </linearGradient>
        <path id="Rounded-Rectangle-copy-6" fill="url(#linearGradient9)" fill-rule="evenodd" stroke="none" d="M 374.598816 933.762817 C 374.598816 948.253235 386.345612 960 400.836029 960 L 625.164001 960 C 639.654358 960 651.401184 948.253235 651.401184 933.762817 L 651.401184 709.434814 C 651.401184 694.944458 639.654358 683.197632 625.164001 683.197632 L 400.836029 683.197632 C 386.345612 683.197632 374.598816 694.944458 374.598816 709.434814 Z"/>
    </g>
</svg>
